<?xml version="1.0" encoding="UTF-8" standalone="no"?>
<svg
   sodipodi:docname="ripplerx.svg"
   inkscape:version="1.3 (0e150ed6c4, 2023-07-21)"
   id="svg1266"
   version="1.1"
   viewBox="0 0 33.62457 16.486689"
   height="62.311893"
   width="127.08499"
   xml:space="preserve"
   xmlns:inkscape="http://www.inkscape.org/namespaces/inkscape"
   xmlns:sodipodi="http://sodipodi.sourceforge.net/DTD/sodipodi-0.dtd"
   xmlns="http://www.w3.org/2000/svg"
   xmlns:svg="http://www.w3.org/2000/svg"
   xmlns:rdf="http://www.w3.org/1999/02/22-rdf-syntax-ns#"
   xmlns:cc="http://creativecommons.org/ns#"
   xmlns:dc="http://purl.org/dc/elements/1.1/"><defs
     id="defs1260" /><sodipodi:namedview
     inkscape:window-maximized="1"
     inkscape:window-y="-8"
     inkscape:window-x="-8"
     inkscape:window-height="1057"
     inkscape:window-width="1920"
     inkscape:guide-bbox="true"
     showguides="false"
     inkscape:snap-global="true"
     units="px"
     inkscape:snap-page="false"
     inkscape:snap-grids="true"
     id="base"
     pagecolor="#ffffff"
     bordercolor="#666666"
     borderopacity="1.0"
     inkscape:pageopacity="1"
     inkscape:pageshadow="2"
     inkscape:zoom="1.4142136"
     inkscape:cx="372.64527"
     inkscape:cy="335.16861"
     inkscape:document-units="px"
     inkscape:current-layer="layer1"
     inkscape:document-rotation="0"
     showgrid="true"
     showborder="false"
     inkscape:lockguides="false"
     inkscape:showpageshadow="2"
     inkscape:pagecheckerboard="0"
     inkscape:deskcolor="#d1d1d1"><inkscape:grid
       units="px"
       type="xygrid"
       id="grid1829"
       enabled="false"
       visible="true"
       empcolor="#454545"
       empopacity="0.25098039"
       color="#919191"
       opacity="0.1254902"
       empspacing="1"
       spacingx="2.6458333"
       spacingy="2.6458333"
       dotted="false"
       originx="-289.17928"
       originy="-743.12865" /><inkscape:grid
       enabled="false"
       units="px"
       gridanglez="30"
       gridanglex="30"
       spacingy="2.6458333"
       id="grid831"
       type="axonomgrid"
       originx="-289.17928"
       originy="-743.12865"
       visible="true" /><sodipodi:guide
       id="guide839"
       orientation="0,793.70081"
       position="-76.512018,493.61945"
       inkscape:locked="false" /><sodipodi:guide
       id="guide845"
       orientation="-1122.5197,0"
       position="-76.512018,196.61946"
       inkscape:locked="false" /></sodipodi:namedview><metadata
     id="metadata1263"><rdf:RDF><cc:Work
         rdf:about=""><dc:format>image/svg+xml</dc:format><dc:type
           rdf:resource="http://purl.org/dc/dcmitype/StillImage" /></cc:Work></rdf:RDF></metadata><g
     style="opacity:1"
     inkscape:label="Layer 1"
     inkscape:groupmode="layer"
     id="layer1"
     transform="translate(-76.512018,-196.61946)"><g
       id="g11"
       inkscape:export-filename="g4.png"
       inkscape:export-xdpi="90"
       inkscape:export-ydpi="90"
       transform="translate(-64.139523,140.43519)"><g
         id="g10"
         inkscape:export-filename="..\..\..\..\..\..\Desktop\g1.png"
         inkscape:export-xdpi="90"
         inkscape:export-ydpi="90"><g
           id="g12"><text
             xml:space="preserve"
             style="font-style:normal;font-variant:normal;font-weight:normal;font-stretch:normal;font-size:6.9105px;line-height:1.25;font-family:'Kozuka Mincho Pr6N';-inkscape-font-specification:'Kozuka Mincho Pr6N';letter-spacing:0px;word-spacing:0px;fill:#666666;fill-opacity:1;stroke-width:0.148083"
             x="139.87209"
             y="61.660706"
             id="text2"><tspan
               sodipodi:role="line"
               id="tspan2"
               style="font-style:normal;font-variant:normal;font-weight:normal;font-stretch:normal;font-family:'MV Boli';-inkscape-font-specification:'MV Boli';fill:#666666;fill-opacity:1;stroke-width:0.148083"
               x="139.87209"
               y="61.660706">RIPPLERX</tspan></text><g
             id="g8"
             transform="matrix(2.2147219,0,0,2.2147219,-90.186007,-92.334131)"><path
               id="path6"
               style="fill:#666666;fill-opacity:1;stroke-width:0.126301;stroke-linecap:round;stroke-linejoin:bevel;stroke-miterlimit:16.3"
               d="m 115.89528,70.181685 a 4.1091733,0.9894058 0 0 1 0.0336,0.125324 4.1091733,0.9894058 0 0 1 -4.10911,0.989502 4.1091733,0.9894058 0 0 1 -4.1091,-0.989502 4.1091733,0.9894058 0 0 1 0.0342,-0.124845 4.5835043,0.9894058 0 0 0 -0.50847,0.451805 4.5835043,0.9894058 0 0 0 4.58343,0.989502 4.5835043,0.9894058 0 0 0 4.58344,-0.989502 4.5835043,0.9894058 0 0 0 -0.50795,-0.452284 z" /><path
               id="path7"
               style="fill:#666666;fill-opacity:1;stroke-width:0.10832;stroke-linecap:round;stroke-linejoin:bevel;stroke-miterlimit:16.3"
               d="m 114.93125,71.725169 a 3.1371719,0.95322037 0 0 1 0.0257,0.120741 3.1371719,0.95322037 0 0 1 -3.13712,0.953313 3.1371719,0.95322037 0 0 1 -3.13712,-0.953313 3.1371719,0.95322037 0 0 1 0.0261,-0.120279 3.4993026,0.95322037 0 0 0 -0.38819,0.435282 3.4993026,0.95322037 0 0 0 3.49924,0.953312 3.4993026,0.95322037 0 0 0 3.49925,-0.953312 3.4993026,0.95322037 0 0 0 -0.38779,-0.435744 z" /><path
               id="path8"
               style="fill:#666666;fill-opacity:1;stroke-width:0.085996;stroke-linecap:round;stroke-linejoin:bevel;stroke-miterlimit:16.3"
               d="m 113.78091,73.114695 a 1.9773378,0.95322037 0 0 1 0.0162,0.120741 1.9773378,0.95322037 0 0 1 -1.97731,0.953313 1.9773378,0.95322037 0 0 1 -1.9773,-0.953313 1.9773378,0.95322037 0 0 1 0.0164,-0.120279 2.2055862,0.95322037 0 0 0 -0.24467,0.435281 2.2055862,0.95322037 0 0 0 2.20555,0.953313 2.2055862,0.95322037 0 0 0 2.20555,-0.953313 2.2055862,0.95322037 0 0 0 -0.24442,-0.435743 z" /></g></g></g></g></g><inkscape:templateinfo><inkscape:name>dd</inkscape:name><inkscape:date>2021-10-06</inkscape:date></inkscape:templateinfo><inkscape:templateinfo><inkscape:name>dd</inkscape:name><inkscape:date>2021-10-06</inkscape:date></inkscape:templateinfo><inkscape:templateinfo><inkscape:name>df</inkscape:name><inkscape:date>2021-10-27</inkscape:date></inkscape:templateinfo></svg>
